<?xml version="1.0" standalone="no"?>
<!DOCTYPE svg PUBLIC "-//W3C//DTD SVG 20010904//EN"
 "http://www.w3.org/TR/2001/REC-SVG-20010904/DTD/svg10.dtd">
<svg version="1.0" xmlns="http://www.w3.org/2000/svg"
 width="1867.393004pt" height="332.684583pt" viewBox="0 0 1867.393004 332.684583"
 preserveAspectRatio="xMidYMid meet">
<metadata>
Created by potrace 1.12, written by Peter Selinger 2001-2015
</metadata>
<g transform="translate(-48.080375,717.613687) scale(0.100000,-0.100000)"
fill="#000000" stroke="none">
<path d="M9615 7174 c-198 -29 -392 -82 -500 -136 -268 -135 -442 -350 -495
-615 -53 -267 12 -517 182 -699 154 -164 389 -272 844 -389 484 -125 650 -189
756 -295 79 -80 109 -147 116 -260 8 -153 -23 -237 -126 -331 -146 -136 -384
-200 -684 -185 -357 18 -650 130 -917 349 -41 34 -76 57 -78 51 -2 -5 -44 -95
-94 -199 l-90 -190 43 -38 c57 -51 217 -156 298 -197 150 -76 391 -147 588
-174 170 -24 497 -22 649 4 454 77 775 325 864 669 27 100 36 286 19 388 -34
212 -148 397 -315 510 -174 117 -332 176 -785 293 -420 108 -584 175 -690 281
-228 228 -105 590 238 703 107 35 160 46 287 57 179 16 403 -11 580 -68 94
-31 305 -133 356 -174 20 -16 41 -29 47 -29 9 0 172 367 172 387 0 27 -254
157 -395 203 -195 63 -332 82 -600 85 -132 2 -253 1 -270 -1z"/>
<path d="M484 5513 l2 -1628 235 0 234 0 3 532 2 531 528 4 c495 4 535 6 651
27 329 60 587 214 744 445 57 84 121 227 147 326 31 119 39 376 16 510 -41
239 -125 401 -289 561 -150 146 -356 242 -632 295 -80 16 -178 18 -867 21
l-777 4 3 -1628z m1591 1189 c128 -35 256 -104 329 -175 69 -68 125 -162 149
-247 60 -211 34 -438 -69 -606 -90 -147 -213 -229 -429 -286 -75 -20 -109 -22
-587 -25 l-508 -4 -2 678 c-2 373 -1 682 0 686 2 4 236 6 520 5 497 -4 520 -5
597 -26z"/>
<path d="M3820 5511 l0 -1630 235 -1 235 0 0 535 0 535 478 0 479 0 33 -52
c19 -29 57 -89 85 -133 29 -44 96 -150 150 -235 54 -85 151 -236 215 -335 64
-99 136 -211 160 -248 l44 -68 253 2 c139 1 253 6 253 10 0 10 -83 143 -215
344 -249 382 -525 811 -525 819 0 3 6 6 13 6 22 0 193 87 260 132 80 54 192
166 246 247 232 342 237 869 14 1215 -59 91 -188 221 -279 279 -86 56 -231
121 -329 148 -191 52 -197 52 -1027 56 l-778 4 0 -1630z m1590 1190 c138 -36
240 -91 324 -174 125 -125 178 -262 179 -467 2 -368 -216 -620 -592 -684 -77
-13 -179 -16 -563 -16 l-468 0 0 686 0 685 518 -4 c496 -3 520 -4 602 -26z"/>
<path d="M7255 7128 c-3 -7 -4 -738 -3 -1625 l3 -1612 235 -3 235 -3 -1 105
c-1 58 -2 790 -3 1628 l-1 1522 -230 0 c-175 0 -232 -3 -235 -12z"/>
<path d="M11790 5513 l0 -1628 225 -1 225 -1 0 1154 c0 673 4 1152 9 1149 5
-3 21 -29 36 -58 15 -29 67 -123 115 -208 48 -85 230 -414 405 -730 281 -509
399 -721 482 -867 l24 -43 133 0 133 0 55 103 c65 120 137 250 240 437 41 74
141 257 223 405 81 149 164 299 185 335 20 36 107 192 191 347 85 155 157 283
162 283 4 0 7 -517 7 -1150 l0 -1150 188 -1 c103 -1 205 -2 227 -2 l40 -1 0
1624 0 1625 -207 3 -207 2 -34 -62 c-98 -179 -368 -668 -427 -773 -37 -66 -93
-167 -125 -225 -32 -58 -77 -139 -100 -180 -23 -41 -67 -120 -97 -175 -31 -55
-112 -201 -180 -325 -223 -401 -258 -467 -258 -479 0 -6 -7 -11 -15 -11 -8 0
-15 5 -15 10 0 6 -20 45 -44 88 -52 90 -449 805 -574 1032 -46 85 -122 220
-167 300 -45 80 -145 260 -223 400 -77 140 -158 287 -180 325 l-40 70 -206 3
-206 2 0 -1627z"/>
<path d="M17476 7108 c-8 -13 -47 -79 -86 -148 -40 -69 -142 -246 -228 -395
-85 -148 -207 -360 -270 -470 -207 -361 -367 -638 -427 -740 -70 -120 -385
-669 -465 -810 -55 -99 -237 -413 -331 -573 -32 -55 -44 -84 -36 -87 6 -3 678
-4 1492 -2 l1480 3 210 140 c116 77 238 158 273 179 35 21 65 41 67 44 2 3
-13 33 -32 66 -20 33 -159 276 -311 540 -151 264 -305 532 -342 595 -37 63
-111 192 -165 285 -54 94 -132 229 -173 300 -118 204 -457 795 -546 952 -45
79 -84 143 -88 143 -4 0 -14 -10 -22 -22z m24 -630 c0 -16 42 -127 170 -448
56 -140 110 -277 120 -305 10 -27 36 -95 58 -150 22 -55 91 -233 155 -395 63
-162 172 -441 241 -620 70 -179 130 -333 133 -342 5 -17 -52 -18 -1101 -18
-608 0 -1106 2 -1106 4 0 4 96 171 172 301 20 33 73 125 119 205 45 80 139
242 207 360 117 202 184 318 461 800 62 107 168 291 234 408 67 116 125 212
129 212 5 0 8 -6 8 -12z m373 -615 c13 -27 57 -104 97 -173 40 -69 150 -260
245 -425 95 -165 213 -370 262 -455 183 -316 200 -346 232 -402 l32 -58 -108
-70 -107 -71 -23 45 c-12 24 -155 374 -317 777 -162 404 -308 767 -325 807
-33 81 -25 98 12 25z"/>
</g>
</svg>
